<svg viewBox="0 0 200 200" xmlns="http://www.w3.org/2000/svg" className="absolute top-[-60px] right-[-80px] w-[400px] opacity-20 z-0 pointer-events-none">
  <path fill="#c4c4ff" d="M40.1,-64.2C51.5,-56.3,60.9,-45.5,66.3,-32.8C71.7,-20.2,72.9,-5.7,71.5,9.4C70.1,24.5,66.1,40.2,56.1,49.9C46.1,59.6,30.1,63.3,14.8,65.6C-0.6,67.9,-15.2,68.8,-29.1,64.6C-43,60.4,-56.2,51.1,-62.6,38.8C-69,26.5,-68.7,11.2,-68.7,-5.2C-68.7,-21.6,-69.1,-39.2,-60.6,-50.6C-52.2,-62,-34.9,-67.1,-18.3,-70C-1.7,-72.9,14.1,-73.6,40.1,-64.2Z" transform="translate(100 100)" />
</svg>
