<svg viewBox="0 0 200 200" xmlns="http://www.w3.org/2000/svg" className="absolute bottom-[-80px] left-[-100px] w-[380px] opacity-20 z-0 pointer-events-none">
  <path fill="#a9c1ff" d="M34.4,-61.6C45.3,-56.6,56.4,-45.9,63.2,-32.7C70,-19.5,72.5,-3.9,67.6,9.7C62.7,23.4,50.4,34.9,38.8,44.2C27.3,53.5,16.6,60.5,3.2,61.9C-10.1,63.4,-20.3,59.2,-33.8,53.4C-47.3,47.7,-64.1,40.4,-68.7,28.6C-73.3,16.8,-65.6,0.6,-58.8,-12.6C-52.1,-25.8,-46.4,-36.1,-37.9,-42.5C-29.3,-49,-18,-51.5,-5.9,-54.1C6.1,-56.6,12.1,-59.3,23.6,-64.1C35,-68.9,52,-75.1,34.4,-61.6Z" transform="translate(100 100)" />
</svg>
